<?xml version="1.0" encoding="utf-8"?>
<!-- Generator: Adobe Illustrator 21.0.0, SVG Export Plug-In . SVG Version: 6.00 Build 0)  -->
<svg version="1.1" id="Layer_1" xmlns="http://www.w3.org/2000/svg" xmlns:xlink="http://www.w3.org/1999/xlink" x="0px" y="0px"
	 width="95px" height="64px" viewBox="0 0 95 64" enable-background="new 0 0 95 64" xml:space="preserve">
<g>
	<g>
		<path fill="#FFFFFF" d="M76.475,29.156c-0.859-4.307-2.802-8.165-5.509-11.317V6.254H32.454v12.393
			c-0.435,0.553-0.856,1.117-1.247,1.71c-1.219-0.284-2.465-0.43-3.714-0.43c-8.931,0-16.2,7.269-16.2,16.196
			c0,0.755,0.053,1.508,0.16,2.263C5.703,39.765,1.5,44.998,1.5,50.995C1.5,58.171,7.329,64,14.496,64h60.535
			c2.083,0,4.166-0.517,5.946-1.449c6.39-2.791,10.529-9.097,10.529-16.065C91.506,37.667,85.1,30.366,76.475,29.156z
			 M79.973,60.457c-1.544,0.814-3.206,1.224-4.941,1.224H14.496c-5.89,0-10.68-4.79-10.68-10.686c0-5.256,3.928-9.787,9.139-10.546
			l1.227-0.18l-0.258-1.213c-0.211-0.957-0.314-1.951-0.314-2.934c0-7.652,6.23-13.879,13.884-13.879
			c1.322,0,2.639,0.191,3.911,0.562l0.851,0.25l0.463-0.755c0.775-1.266,1.656-2.434,2.628-3.498h33.363
			c2.869,3.142,4.896,7.109,5.638,11.593l0.146,0.887l0.893,0.079c7.873,0.716,13.808,7.22,13.808,15.126
			C89.193,52.539,85.6,58.014,79.973,60.457z"/>
	</g>
	<g>
		<polygon fill="#FFFFFF" points="88.497,9.792 85.021,20.991 93.5,20.991 90.024,9.792 90.024,3.579 90.024,0.622 90.024,0.294 
			13.399,0.294 13.399,3.579 88.497,3.579 		"/>
	</g>
	<g>
		<path fill="#FFFFFF" d="M77.918,42.589c-1.151,0-2.083,0.865-2.196,1.988l-8.979,2.763c-0.781-1.656-2.28-2.892-4.094-3.313
			l0.859-9.855c1.005-0.291,1.741-1.206,1.741-2.304c0-1.331-1.078-2.409-2.409-2.409c-0.932,0-1.735,0.531-2.134,1.303
			l-11.368-1.241c-0.16-2.726-2.401-4.891-5.166-4.891c-2.881,0-5.208,2.325-5.208,5.205c0,1.977,1.12,3.679,2.749,4.561
			l-3.406,10.051c-0.146-0.011-0.286-0.045-0.435-0.045c-0.781,0-1.508,0.242-2.128,0.629l-6.41-6.578
			c0.084-0.216,0.132-0.455,0.132-0.696c0-1.12-0.901-2.021-2.016-2.021c-1.115,0-2.019,0.901-2.019,2.021
			c0,1.115,0.904,2.019,2.019,2.019c0.225,0,0.438-0.045,0.64-0.112l6.407,6.57c-0.424,0.64-0.668,1.404-0.668,2.229
			c0,0,0,0.011,0,0.022l-14.024,3.161c-0.489-0.809-1.373-1.37-2.395-1.37c-1.55,0-2.802,1.258-2.802,2.802
			c0,1.55,1.252,2.808,2.802,2.808c1.457,0,2.639-1.118,2.777-2.533l14.03-3.178c0.651,1.37,2.038,2.33,3.656,2.33
			c1.847,0,3.386-1.247,3.874-2.937l13.468,0.859c0.253,3.117,2.858,5.576,6.048,5.576c3.352,0,6.07-2.723,6.07-6.07
			c0-0.32-0.034-0.629-0.078-0.938l8.973-2.763c0.41,0.477,1.005,0.786,1.69,0.786c1.218,0,2.212-0.994,2.212-2.212
			C80.13,43.583,79.136,42.589,77.918,42.589z M49.156,31.253l11.365,1.238c0.18,0.675,0.646,1.231,1.258,1.53l-0.859,9.859
			c-1.056,0.056-2.038,0.388-2.881,0.927l-9.9-11.646C48.603,32.606,48.952,31.961,49.156,31.253z M43.356,34.954
			c0.264,0.049,0.536,0.084,0.817,0.084c0.969,0,1.867-0.282,2.648-0.747l9.894,11.633c-0.685,0.764-1.179,1.713-1.393,2.763
			L41.86,47.845c-0.188-1.213-0.901-2.229-1.904-2.836L43.356,34.954z"/>
	</g>
</g>
</svg>
