<?xml version="1.0" encoding="utf-8"?>
<!-- Generator: Adobe Illustrator 21.0.0, SVG Export Plug-In . SVG Version: 6.00 Build 0)  -->
<svg version="1.1" id="Layer_1" xmlns="http://www.w3.org/2000/svg" xmlns:xlink="http://www.w3.org/1999/xlink" x="0px" y="0px"
	 width="73px" height="59px" viewBox="0 0 73 59" enable-background="new 0 0 73 59" xml:space="preserve">
<g>
	<g>
		<g>
			<path fill="#FFFFFF" d="M73,58.994c-24.346,0-48.531,0-72.926,0c0-19.547,0-39.075,0-58.722c24.31,0,48.532,0,72.926,0
				C73,19.812,73,39.302,73,58.994z M70.669,40.195c0-12.623,0-25.116,0-37.646c-22.822,0-45.534,0-68.287,0
				c0,12.589,0,25.081,0,37.646C25.164,40.195,47.835,40.195,70.669,40.195z M70.719,42.711c-22.897,0-45.606,0-68.358,0
				c0,4.715,0,9.312,0,13.942c22.838,0,45.587,0,68.358,0C70.719,51.963,70.719,47.404,70.719,42.711z"/>
		</g>
		<g>
			<path fill="#FFFFFF" d="M47.379,21.354c-5.633,3.03-11.034,5.936-16.604,8.933c0-6.02,0-11.82,0-17.868
				C36.343,15.416,41.746,18.323,47.379,21.354z M33.075,16.268c0,3.531,0,6.759,0,10.167c3.179-1.71,6.184-3.328,9.441-5.08
				C39.28,19.612,36.252,17.98,33.075,16.268z"/>
		</g>
		<g>
			<path fill="#FFFFFF" d="M68.314,48.557c0,0.867,0,1.486,0,2.308c-0.651,0-1.224,0-1.796,0c-13.819,0-27.638,0.007-41.458-0.015
				c-1.029-0.002-1.672,0.146-2.274,1.214c-1.797,3.188-6.267,3.091-8.042-0.132c-0.473-0.859-0.966-1.095-1.86-1.083
				c-2.58,0.035-5.16-0.006-7.74-0.024c-0.095-0.001-0.19-0.078-0.388-0.164c0-0.575,0-1.193,0-1.994
				c0.563-0.04,1.13-0.111,1.696-0.115c2.097-0.014,4.195-0.048,6.291,0.012c0.957,0.028,1.495-0.208,2.004-1.132
				c1.809-3.283,6.317-3.27,8.137,0.026c0.517,0.936,1.088,1.105,2.026,1.104c13.765-0.02,27.531-0.009,41.296-0.006
				C66.845,48.557,67.484,48.557,68.314,48.557z M18.821,52.057c1.299-0.003,2.337-1.034,2.355-2.337
				c0.019-1.38-1.057-2.43-2.449-2.39c-1.308,0.037-2.292,1.082-2.263,2.401C16.493,51.054,17.513,52.06,18.821,52.057z"/>
		</g>
	</g>
</g>
</svg>
