<?xml version="1.0" encoding="utf-8"?>
<!-- Generator: Adobe Illustrator 21.0.0, SVG Export Plug-In . SVG Version: 6.00 Build 0)  -->
<svg version="1.1" id="Layer_1" xmlns="http://www.w3.org/2000/svg" xmlns:xlink="http://www.w3.org/1999/xlink" x="0px" y="0px"
	 width="83px" height="96px" viewBox="0 0 83 96" enable-background="new 0 0 83 96" xml:space="preserve">
<g>
	<g>
		<g>
			<g>
				<path fill="#FFFFFF" d="M19.519,26.779c0.05,0.284,4.763,14.473,4.813,14.655c0.936,3.357,2.515,7.587,6.448,10.521
					c0.686,0.512,0.994,1.654,0.804,2.982c-0.211,1.48-0.966,2.703-1.879,3.044c-0.855,0.319-1.687,0.559-2.473,0.714
					c-0.603,0.119-1.449,0.364-1.837,1.112c-0.311,0.6-0.245,1.38,0.203,2.383l0.279,0.625l0.567-0.384
					c2.47-1.671,4.568-0.691,6.997,0.444c0.383,0.179,0.769,0.359,1.16,0.531c2.333,1.023,4.698,1.533,7.046,1.533
					c3.029,0,6.028-0.849,8.891-2.54c1.671-0.987,2.908-1.134,4.414-0.527c0.399,0.161,0.802,0.244,1.228,0.331
					c0.185,0.038,0.376,0.077,0.572,0.124l0.451,0.109l0.201-0.419c0.434-0.904,0.503-1.624,0.21-2.202
					c-0.284-0.56-0.866-0.915-1.78-1.086c-0.377-0.07-0.749-0.179-1.143-0.293l-0.097-0.028c-2.91-0.843-3.627-2.052-2.951-4.976
					c0.065-0.28,0.392-0.678,0.761-0.925c4.154-2.783,5.94-6.996,7.138-10.749c0.359-1.125,5.622-14.422,5.738-14.668
					c1.848-3.92,1.619-7.931,1.213-10.988c-0.124-0.935,0.006-2.036,0.35-2.945c1.755-4.635,1.647-8.835-0.329-12.838L66.357,0
					l-1.746,0l-0.169,0.173c-2.462,2.517-5.654,2.925-7.896,2.823c-3.006-0.136-6.063-0.655-9.02-1.157
					c-0.996-0.169-1.992-0.338-2.988-0.493c-5.004-0.781-10.319-1.134-15.29,1.551c-1.253,0.677-2.305,1.692-3.322,2.672
					c-0.405,0.391-0.825,0.796-1.245,1.166c-0.189,0.167-0.311,0.373-0.417,0.556c-0.043,0.073-0.105,0.178-0.143,0.223
					c-4.526,1.678-5.356,5.838-5.574,9.278c-0.139,2.209,0.191,4.454,0.511,6.625c0.14,0.948,0.284,1.929,0.386,2.885
					C19.461,26.457,19.49,26.618,19.519,26.779z M49.854,58.943c-4.572,3.544-12.301,3.567-16.627,0.049l0.9-4.747
					c4.843,2.859,9.809,3.038,14.781,0.53L49.854,58.943z M61.672,16.153c-0.559-0.443-1.38-0.303-2.174-0.121l-0.204,0.047
					c-1.802,0.413-3.663,0.838-5.449,0.791c-2.701-0.074-5.422-0.529-8.054-0.968c-1.057-0.176-2.111-0.369-3.165-0.561
					c-4.597-0.838-9.35-1.705-14.219-1.195c-1.503,0.157-3.578,0.65-4.24,3.099c-0.574,2.127-1.087,4.297-1.583,6.396
					c-0.08,0.34-0.16,0.679-0.241,1.018c-1.28-4.107-1.079-8.088,0.601-11.85c0.236-0.527,0.879-0.956,1.561-1.41
					c0.34-0.227,0.691-0.461,1.006-0.72c0.098-0.08,0.219-0.16,0.348-0.245c0.33-0.217,0.703-0.462,0.902-0.868
					c1.154-2.347,3.149-3.823,6.468-4.787c3.715-1.078,7.425-0.785,11.853-0.013c1.014,0.177,2.048,0.399,3.047,0.613
					c3.402,0.729,6.92,1.484,10.567,0.704c1.452-0.31,2.852-0.732,4.334-1.179c0.487-0.147,0.979-0.295,1.48-0.442
					c0.587,2.851,0.237,5.533-1.064,8.181c-0.45,0.916-0.595,2.179-0.37,3.218c0.71,3.281,0.614,6.136-0.294,8.728
					c-0.116,0.331-0.288,0.651-0.494,0.984l0-1.053c0.002-2.216,0.004-4.295-0.005-6.374C62.281,17.239,62.176,16.552,61.672,16.153
					z M57.521,39.547l-0.046,0.192c-0.913,3.786-2.254,6.495-4.223,8.525c-6.415,6.617-13.085,7.467-19.823,2.527
					c-3.635-2.666-5.881-6.206-6.865-10.823c-0.04-0.189-0.071-0.384-0.103-0.578c-0.177-1.1-0.788-10.227-0.749-11.059
					c0.037-0.774,0.04-1.399,0.012-1.966c-0.126-2.552-0.048-5.243,1.365-7.641c0.353-0.598,1.144-1.221,1.547-1.221
					c0.003,0,0.005,0,0.008,0c4.042,0.087,7.684,0.199,11.319,0.69c1.65,0.223,3.327,0.543,4.948,0.852
					c4.524,0.863,9.195,1.755,14.006,0.711c-0.08,2.449-0.156,4.492-0.239,6.404C58.569,28.664,57.755,38.548,57.521,39.547z"/>
			</g>
			<g>
				<path fill="#FFFFFF" d="M68.225,64.924c3.494,0.861,6.461,2.615,8.613,5.599c1.823,2.528,1.765,5.529,2.122,8.408
					c0.525,4.231,1.375,17.063,1.375,17.063h2.413c0,0-0.22-3.804-0.366-5.242c-0.534-5.255-1.204-10.495-1.765-15.747
					c-0.396-3.708-2.145-6.614-5.075-8.835c-2.555-1.936-5.287-3.497-8.667-3.626C66.32,63.911,66.752,64.561,68.225,64.924z"/>
			</g>
			<g>
				<path fill="#FFFFFF" d="M16.139,62.636c-5.519,0.064-13.6,5.32-13.98,13.676C1.946,81.01,1.164,85.681,0.66,90.366
					C0.442,92.393,0,95.994,0,95.994h2.507c0,0,0.059-3.259,0.203-4.563c0.574-5.192,1.134-10.385,1.689-15.579
					c0.585-5.482,3.971-9.151,10.26-10.895C16.03,64.576,16.72,64.099,16.139,62.636z"/>
			</g>
			<g>
				<g>
					<path fill="#FFFFFF" d="M59.112,95.994V59.312h6.697v36.682c0.439,0.02,0.879-0.023,1.318,0c0.326,0.017,0.652-0.018,0.978,0
						v-37.83c0-0.634-0.514-1.148-1.148-1.148h-8.992c-0.634,0-1.148,0.514-1.148,1.148v37.83
						C57.582,95.995,58.347,95.985,59.112,95.994z"/>
				</g>
			</g>
			<g>
				<g>
					<path fill="#FFFFFF" d="M17.402,95.994V59.312h6.697v36.682c0.766,0.019,1.531-0.022,2.296,0v-37.83
						c0-0.634-0.514-1.148-1.148-1.148h-8.992c-0.634,0-1.148,0.514-1.148,1.148v37.83C15.871,95.935,16.636,96.023,17.402,95.994z"
						/>
				</g>
			</g>
			<g>
				<g>
					<path fill="#FFFFFF" d="M12.811,65.13c0.634,0,1.148-0.514,1.148-1.148V60.46c0-4.325,3.519-7.844,7.844-7.844h9.63
						c0.634,0,1.148-0.514,1.148-1.148s-0.514-1.148-1.148-1.148h-9.63c-5.592,0-10.14,4.549-10.14,10.14v3.522
						C11.663,64.616,12.176,65.13,12.811,65.13z"/>
				</g>
			</g>
			<path fill="#FFFFFF" d="M31.433,51.467"/>
			<g>
				<g>
					<path fill="#FFFFFF" d="M71.74,66.264c0.634,0,1.148-0.514,1.148-1.148V60.46c0-5.592-4.549-10.14-10.14-10.14h-10.14
						c-0.634,0-1.148,0.514-1.148,1.148s0.514,1.148,1.148,1.148h10.14c4.325,0,7.844,3.519,7.844,7.844v4.656
						C70.592,65.75,71.106,66.264,71.74,66.264z"/>
				</g>
			</g>
		</g>
	</g>
	<g>
		<g>
			<circle fill="#FFFFFF" cx="49.784" cy="28.986" r="1.674"/>
		</g>
		<g>
			<path fill="#FFFFFF" d="M53.466,26.132c-0.084,0-0.171-0.016-0.254-0.05c-0.526-0.216-2.106-0.778-3.093-0.778
				c-1.126,0-2.316,0.722-2.327,0.729c-0.315,0.193-0.728,0.094-0.921-0.219c-0.194-0.315-0.097-0.726,0.217-0.92
				c0.061-0.038,1.519-0.928,3.031-0.928c1.455,0,3.516,0.843,3.603,0.879c0.342,0.141,0.505,0.532,0.364,0.874
				C53.98,25.975,53.73,26.132,53.466,26.132z"/>
		</g>
		<g>
			<circle fill="#FFFFFF" cx="34.382" cy="28.986" r="1.674"/>
		</g>
		<g>
			<path fill="#FFFFFF" d="M30.7,26.132c-0.264,0-0.513-0.156-0.62-0.415c-0.141-0.342,0.022-0.733,0.364-0.874
				c0.087-0.036,2.148-0.879,3.603-0.879c1.512,0,2.97,0.89,3.031,0.928c0.314,0.194,0.411,0.606,0.217,0.92
				c-0.194,0.314-0.608,0.412-0.921,0.219c-0.012-0.007-1.201-0.729-2.327-0.729c-0.987,0-2.567,0.561-3.093,0.778
				C30.871,26.116,30.784,26.132,30.7,26.132z"/>
		</g>
		<g>
			<path fill="#FFFFFF" d="M42.083,39.366c-1.571,0-2.394-0.777-2.482-0.866c-0.262-0.262-0.262-0.685,0-0.947
				c0.26-0.26,0.679-0.262,0.94-0.007c0.035,0.032,0.54,0.48,1.542,0.48c1.159,0,2.368-0.593,2.38-0.599
				c0.334-0.165,0.734-0.029,0.898,0.301c0.165,0.331,0.031,0.732-0.3,0.897C45,38.656,43.564,39.366,42.083,39.366z"/>
		</g>
		<g>
			<path fill="#FFFFFF" d="M42.418,47.067c-2.86,0-5.309-1.725-5.411-1.799l0.778-1.09c0.022,0.015,2.211,1.55,4.634,1.55
				c2.35,0,3.866-1.465,3.881-1.48l0.945,0.949C47.168,45.273,45.34,47.067,42.418,47.067z"/>
		</g>
	</g>
</g>
</svg>
