<?xml version="1.0" encoding="utf-8"?>
<!-- Generator: Adobe Illustrator 21.0.0, SVG Export Plug-In . SVG Version: 6.00 Build 0)  -->
<svg version="1.1" id="Layer_1" xmlns="http://www.w3.org/2000/svg" xmlns:xlink="http://www.w3.org/1999/xlink" x="0px" y="0px"
	 width="102px" height="104px" viewBox="0 0 102 104" enable-background="new 0 0 102 104" xml:space="preserve">
<g>
	<g>
		<path fill="#FFFFFF" d="M101.522,101.978c-0.029-0.155-0.057-0.302-0.051-0.415c0.182-4.135,0.089-8.23-0.278-12.172
			c-0.591-6.355-3.774-11.486-9.458-15.252c-1.072-0.71-2.172-1.377-3.235-2.023c-0.317-0.192-0.632-0.383-0.943-0.574
			c5.654-16.806,5.578-32.93-0.235-49.196l0.024-0.006l-0.166-0.679c-0.054-0.218-1.357-5.409-5.281-10.693
			C78.236,6.038,71.54,0.133,60.437,0.002c-7.835-0.1-14.889,3.634-20.381,10.773c-4.052,5.266-5.824,10.504-5.897,10.724
			l-0.221,0.663l0.1,0.033c-3.404,9.606-4.828,19.319-4.274,29.051c1.341-0.034,2.685,0.092,4.03,0.208
			c-0.64-10.28,0.691-19.496,4.038-27.994l0.087,0.029l0.223-0.662c0.062-0.186,6.449-18.63,22.01-18.63l0.235,0.001
			c16.427,0.193,21.656,14.88,22.565,17.933l-0.021,0.019l0.087,0.206c0.045,0.158,0.073,0.267,0.084,0.311l0.169,0.677l0.139-0.034
			c3.035,7.454,4.418,15.86,4.216,25.673c-0.154,7.496-1.253,13.924-3.362,19.65c-0.221,0.6-0.434,0.938-0.652,1.031
			c-0.218,0.094-0.604,0.021-1.15-0.214c-2.019-0.869-4.153-1.516-6.216-2.142l-0.461-0.14c-4.268-1.297-5.046-2.228-5.551-6.641
			c-0.144-1.26,0.155-2.015,1.106-2.787c4.328-3.516,6.828-8.004,7.229-12.98c0.382-4.751,0.297-9.556-0.252-14.28
			c-0.604-5.194-3.542-7.874-9.246-8.432c-0.567-0.056-1.137-0.092-1.706-0.128c-0.735-0.047-1.495-0.095-2.226-0.188
			c-4.396-0.557-9.437-1.411-13.641-4.528c-0.092-0.068-0.276-0.214-0.518-0.404c-1.747-1.377-2.706-2.078-3.282-2.381l-0.466-2.403
			l-0.594,2.361l-0.109,0.167c-0.425,0.646-2.612,4.686-2.776,5.656c-0.179,1.05-0.364,2.1-0.549,3.15
			c-0.711,4.026-1.445,8.188-1.765,12.331c-0.667,8.632,2.1,15.982,8.223,21.845c1.062,1.016,1.529,3.03,1.163,5.01
			c-0.316,1.711-1.176,3.016-2.302,3.489c-2.519,1.06-5.14,1.987-7.914,2.968c-1.055,0.373-2.139,0.756-3.262,1.162
			c-0.307-1.228-0.634-2.439-0.951-3.617c-0.481-1.783-0.944-3.508-1.328-5.224c0.223,3.698-0.396,7.352,0,11.038
			c0.088,0.82-0.047,1.705,0,2.611c2.066-0.926,5.988-1.827,8.151-2.753c1.658-0.71,3.366-1.441,5.066-2.19l11.626,26.676
			l0.711-1.072c0.279-0.421,0.529-0.775,0.751-1.09c0.431-0.611,0.771-1.094,1.033-1.642c0.673-1.409,1.35-2.817,2.027-4.225
			c2.542-5.289,5.17-10.759,7.595-16.216c0.796-1.788,1.443-2.067,3.15-1.355c1.448,0.603,2.936,1.168,4.375,1.715
			c2.471,0.938,5.025,1.908,7.408,3.087c7.411,3.665,10.984,10.055,10.62,18.992c-0.055,1.344-0.012,3.03,0.026,4.518
			c0.038,1.506,0.078,3.064-0.015,3.577l-0.15,0.825h3.739l0.2-0.357C101.695,102.898,101.595,102.366,101.522,101.978z
			 M47.6,50.014L47.6,50.014c-3.944-6.663-3.502-13.834-2.436-20.592c0.393-2.493,0.865-5.021,1.321-7.466
			c0.212-1.133,0.423-2.266,0.626-3.389c0.075-0.378,0.144-0.714,0.207-1.012c1.289,1.789,3.651,3.118,5.524,4.04
			c4.191,2.064,8.936,3.14,14.933,3.386c5.127,0.21,7.059,1.942,7.655,6.865c0.399,3.297,0.423,6.66,0.447,9.913
			c0.027,3.773-1.15,7.286-3.499,10.441c-3.791,5.094-8.501,7.256-14,6.425C52.848,57.791,49.713,53.585,47.6,50.014z M70.01,69.643
			c-2.651,5.67-5.304,11.269-8.112,17.197l-1.517,3.204c-0.18-0.341-0.332-0.638-0.463-0.94c-0.96-2.206-1.916-4.413-2.872-6.621
			c-1.789-4.131-3.638-8.402-5.488-12.592c-0.605-1.371-0.587-2.045,0.069-2.578c2.491-2.025,2.747-3.782,3.017-5.641
			c0.036-0.249,0.073-0.503,0.116-0.762c3.874,1.433,8.05,1.34,11.919-0.266c0.252,0.707,0.406,1.407,0.566,2.138
			c0.415,1.894,0.843,3.852,3.066,5.876C70.315,68.774,70.268,69.089,70.01,69.643z"/>
		<g>
			<g>
				<g>
					<path fill="#FFFFFF" d="M36.643,101.071c-0.581-0.001-1.162,0-1.744-0.001c-0.548-0.001-1.14-0.069-1.634-0.284
						c-1.366-0.593-1.988-1.723-1.774-3.177c0.213-1.449,1.149-2.327,2.593-2.589c0.542-0.098,1.106-0.071,1.878-0.113l0.06-44.828
						l-7.487-0.083c-0.826,0-14.932,0.002-21.375,0.006c-4.859,0.002-7.158,2.27-7.159,7.07c-0.003,13.331-0.003,26.662,0,39.993
						c0.001,4.579,2.345,6.933,6.922,6.934C16.798,104,26.671,104,36.544,104C36.617,103.03,36.644,102.051,36.643,101.071z
						 M2.918,86.774c0-10.012-0.003-20.023,0.002-30.035c0.001-2.805,1.024-3.816,3.852-3.818c8.13-0.006,16.261-0.006,24.391-0.008
						c0.549,0,1.098,0,1.762,0v39.315H2.918C2.918,90.639,2.918,88.707,2.918,86.774z M28.819,100.982
						c-0.189,0.017-0.651,0.094-1.112,0.094c-6.991,0.01-13.982,0.016-20.973,0.009c-2.484-0.003-3.851-1.133-3.817-3.103
						c0.033-1.894,1.378-2.991,3.733-2.994c6.991-0.009,13.982-0.005,20.973,0.001c0.485,0,0.97,0.059,1.196,0.074V100.982z"/>
				</g>
				<g>
					<path fill="#FFFFFF" d="M6.084,70.788c0-4.96,0-9.757,0-14.668c7.92,0,15.759,0,23.733,0c0,4.851,0,9.693,0,14.668
						C21.924,70.788,13.998,70.788,6.084,70.788z M8.994,67.907c6.086,0,11.992,0,17.915,0c0-3.032,0-5.937,0-8.853
						c-6.031,0-11.936,0-17.915,0C8.994,62.042,8.994,64.901,8.994,67.907z"/>
				</g>
				<g>
					<path fill="#FFFFFF" d="M15.112,76.818c0-0.878,0-1.717,0-2.67c2.887,0,5.724,0,8.693,0c0,0.845,0,1.684,0,2.67
						C20.98,76.818,18.096,76.818,15.112,76.818z"/>
				</g>
				<g>
					<path fill="#FFFFFF" d="M29.893,74.147c0,0.941,0,1.736,0,2.672c-0.916,0-1.798,0-2.771,0c0-0.888,0-1.728,0-2.672
						C28.022,74.147,28.861,74.147,29.893,74.147z"/>
				</g>
			</g>
		</g>
	</g>
	<g>
		<g>
			<circle fill="#FFFFFF" cx="68.251" cy="33.885" r="1.747"/>
		</g>
		<g>
			<path fill="#FFFFFF" d="M72.094,30.906c-0.088,0-0.178-0.017-0.265-0.053c-0.549-0.226-2.198-0.812-3.228-0.812
				c-1.175,0-2.416,0.753-2.429,0.761c-0.329,0.201-0.759,0.099-0.961-0.229c-0.202-0.328-0.101-0.758,0.227-0.96
				c0.064-0.04,1.585-0.969,3.163-0.969c1.518,0,3.669,0.88,3.76,0.917c0.357,0.147,0.527,0.555,0.38,0.912
				C72.629,30.743,72.369,30.906,72.094,30.906z"/>
		</g>
		<g>
			<circle fill="#FFFFFF" cx="52.179" cy="33.885" r="1.747"/>
		</g>
		<g>
			<path fill="#FFFFFF" d="M48.337,30.906c-0.275,0-0.536-0.163-0.647-0.433c-0.147-0.357,0.023-0.765,0.38-0.912
				c0.091-0.038,2.242-0.917,3.76-0.917c1.578,0,3.099,0.929,3.163,0.969c0.328,0.203,0.429,0.632,0.227,0.96
				c-0.202,0.328-0.634,0.43-0.961,0.229c-0.012-0.008-1.254-0.761-2.429-0.761c-1.03,0-2.679,0.586-3.228,0.812
				C48.515,30.89,48.425,30.906,48.337,30.906z"/>
		</g>
		<g>
			<path fill="#FFFFFF" d="M60.215,44.716c-1.64,0-2.498-0.811-2.59-0.903c-0.273-0.273-0.273-0.715,0-0.988
				c0.271-0.271,0.709-0.273,0.981-0.007c0.036,0.033,0.563,0.501,1.609,0.501c1.209,0,2.471-0.619,2.483-0.625
				c0.348-0.172,0.766-0.03,0.937,0.314c0.172,0.345,0.032,0.764-0.313,0.936C63.259,43.975,61.76,44.716,60.215,44.716z"/>
		</g>
		<g>
			<path fill="#FFFFFF" d="M60.565,52.752c-2.985,0-5.54-1.8-5.647-1.877l0.811-1.138c0.023,0.016,2.307,1.617,4.835,1.617
				c2.452,0,4.034-1.529,4.05-1.544l0.986,0.99C65.521,50.88,63.614,52.752,60.565,52.752z"/>
		</g>
	</g>
</g>
</svg>
